<?xml version="1.0" encoding="UTF-8"?>
<!DOCTYPE svg PUBLIC "-//W3C//DTD SVG 1.1//EN" "http://www.w3.org/Graphics/SVG/1.1/DTD/svg11.dtd">
<!-- Creator: CorelDRAW -->
<svg xmlns="http://www.w3.org/2000/svg" xml:space="preserve" width="150mm" height="150mm" version="1.1" style="shape-rendering:geometricPrecision; text-rendering:geometricPrecision; image-rendering:optimizeQuality; fill-rule:evenodd; clip-rule:evenodd"
viewBox="0 0 15000 15000"
 xmlns:xlink="http://www.w3.org/1999/xlink"
 xmlns:xodm="http://www.corel.com/coreldraw/odm/2003">
 <defs>
  <style type="text/css">
   <![CDATA[
    .fil0 {fill:#31C2EA;fill-rule:nonzero}
    .fil1 {fill:#4086C8;fill-rule:nonzero}
    .fil2 {fill:#4476BA;fill-rule:nonzero}
   ]]>
  </style>
 </defs>
 <g id="图层_x0020_1">
  <metadata id="CorelCorpID_0Corel-Layer"/>
  <g id="_1677336515936">
   <path class="fil0" d="M5949.7 4498l0 520.04 -1206.05 0 0 1206.05 -520.03 0 0 -1726.09 1726.08 0zm1358.29 1788.99l-457.92 837.45 -837.45 457.89 837.45 457.98 457.92 837.39 457.98 -837.39 837.36 -457.98 -837.36 -457.89 -457.98 -837.45zm0 -812.8l745.32 1362.82 1362.86 745.36 -1362.86 745.32 -745.32 1362.87 -745.37 -1362.87 -1362.76 -745.32 1362.76 -745.36 745.37 -1362.82z"/>
   <path class="fil1" d="M9872.33 8940.62l0 1206.09 -1206.05 0 0 520.03 1726.08 0 0 -1726.08 -520.03 0 0 -0.04zm-1206.05 -4442.62l0 520.04 1206.05 0 0 1206.05 520.03 0 0 -1726.09 -1726.08 0z"/>
   <path class="fil2" d="M7307.99 4797.69l-984.52 1800.17 -1800.16 984.51 1800.16 984.52 984.52 1800.12 984.52 -1800.12 1800.12 -984.52 -1800.12 -984.51 -984.52 -1800.17zm-2564.34 4142.99l0 1206.03 1206.05 0 0 520.03 -1726.08 0 0 -1726.06 520.03 0zm2564.34 -5226.71l1367.65 2500.7 2500.76 1367.7 -2500.76 1367.65 -1367.65 2500.76 -1367.7 -2500.76 -2500.71 -1367.65 2500.71 -1367.7 1367.7 -2500.7z"/>
  </g>
 </g>
</svg>
